<svg xmlns="http://www.w3.org/2000/svg" xmlns:xlink="http://www.w3.org/1999/xlink" width="500" zoomAndPan="magnify" viewBox="0 0 375 374.999991" height="500" preserveAspectRatio="xMidYMid meet" version="1.0"><defs><g/><clipPath id="07a22fd2ff"><path d="M 149.265625 188 L 164 188 L 164 202.566406 L 149.265625 202.566406 Z M 149.265625 188 " clip-rule="nonzero"/></clipPath><clipPath id="e543d26e9d"><path d="M 156 198 L 161 198 L 161 202.566406 L 156 202.566406 Z M 156 198 " clip-rule="nonzero"/></clipPath><clipPath id="960ded8feb"><path d="M 156 201 L 159 201 L 159 202.566406 L 156 202.566406 Z M 156 201 " clip-rule="nonzero"/></clipPath><clipPath id="87a55bdff9"><path d="M 156 199 L 160 199 L 160 202.566406 L 156 202.566406 Z M 156 199 " clip-rule="nonzero"/></clipPath><clipPath id="43e185ecfd"><path d="M 156 202 L 158 202 L 158 202.566406 L 156 202.566406 Z M 156 202 " clip-rule="nonzero"/></clipPath><clipPath id="cee4c10d0e"><path d="M 165 193 L 166.019531 193 L 166.019531 194 L 165 194 Z M 165 193 " clip-rule="nonzero"/></clipPath><clipPath id="c3fc96d436"><path d="M 156 197 L 161 197 L 161 202.566406 L 156 202.566406 Z M 156 197 " clip-rule="nonzero"/></clipPath><clipPath id="9c8f3b7532"><path d="M 164 193 L 166.019531 193 L 166.019531 195 L 164 195 Z M 164 193 " clip-rule="nonzero"/></clipPath><clipPath id="ff354e1bea"><path d="M 162 193 L 166.019531 193 L 166.019531 198 L 162 198 Z M 162 193 " clip-rule="nonzero"/></clipPath><clipPath id="b9f3510a42"><path d="M 163 193 L 166.019531 193 L 166.019531 197 L 163 197 Z M 163 193 " clip-rule="nonzero"/></clipPath><clipPath id="4aec394e4c"><path d="M 149.265625 186.929688 L 165 186.929688 L 165 202 L 149.265625 202 Z M 149.265625 186.929688 " clip-rule="nonzero"/></clipPath></defs><g fill="#393839" fill-opacity="1"><g transform="translate(84.139645, 206.055261)"><g><path d="M 12.269531 0.332031 C 17.347656 0.332031 21.238281 -2.738281 21.238281 -8.148438 L 21.238281 -24.570312 L 18.113281 -24.570312 L 18.113281 -8.585938 C 18.113281 -4.503906 15.53125 -2.511719 12.269531 -2.511719 C 9.003906 -2.511719 6.472656 -4.46875 6.472656 -8.585938 L 6.472656 -24.570312 L 3.351562 -24.570312 L 3.351562 -8.148438 C 3.351562 -2.738281 7.222656 0.332031 12.269531 0.332031 Z M 12.269531 0.332031 "/></g></g><g transform="translate(108.72765, 206.055261)"><g><path d="M 20.363281 -24.570312 L 20.363281 -4.78125 L 7.121094 -24.570312 L 3.855469 -24.570312 L 3.855469 0 L 6.929688 0 L 6.929688 -19.875 L 20.171875 0 L 23.472656 0 L 23.472656 -24.570312 Z M 20.363281 -24.570312 "/></g></g><g transform="translate(136.055412, 206.055261)"><g><path d="M 3.855469 0 L 6.980469 0 L 6.980469 -24.570312 L 3.855469 -24.570312 Z M 3.855469 0 "/></g></g></g><g fill="#393839" fill-opacity="1"><g transform="translate(146.892283, 206.055261)"><g/></g><g transform="translate(156.176043, 206.055261)"><g/></g></g><g fill="#393839" fill-opacity="1"><g transform="translate(165.45981, 206.055261)"><g><path d="M 18.96875 -24.570312 L 11.65625 -3.910156 L 4.328125 -24.570312 L 1.046875 -24.570312 L 10.050781 0 L 13.261719 0 L 22.265625 -24.570312 Z M 18.96875 -24.570312 "/></g></g><g transform="translate(188.773915, 206.055261)"><g><path d="M 17.03125 -21.726562 L 17.03125 -24.570312 L 3.855469 -24.570312 L 3.855469 0 L 17.03125 0 L 17.03125 -2.84375 L 7.050781 -2.84375 L 7.050781 -10.871094 L 15.84375 -10.871094 L 15.84375 -13.679688 L 7.050781 -13.679688 L 7.050781 -21.726562 Z M 17.03125 -21.726562 "/></g></g><g transform="translate(207.93476, 206.055261)"><g><path d="M 20.800781 0 L 14.675781 -9.878906 C 15.933594 -10.171875 16.945312 -10.679688 17.765625 -11.378906 C 19.441406 -12.667969 20.261719 -14.78125 20.261719 -17.433594 C 20.261719 -20.085938 19.386719 -21.96875 17.625 -23.105469 C 16.195312 -24.097656 14.171875 -24.570312 11.414062 -24.570312 L 3.855469 -24.570312 L 3.855469 0 L 6.980469 0 L 6.980469 -9.546875 L 11.621094 -9.546875 L 17.152344 0 Z M 6.980469 -21.867188 L 11.011719 -21.867188 C 13.15625 -21.867188 14.710938 -21.640625 15.757812 -20.785156 C 16.578125 -20.101562 17.066406 -18.988281 17.066406 -17.3125 C 17.066406 -15.566406 16.613281 -14.398438 15.808594 -13.613281 C 14.816406 -12.597656 13.210938 -12.269531 11.011719 -12.269531 L 6.980469 -12.269531 Z M 6.980469 -21.867188 "/></g></g><g transform="translate(230.672993, 206.055261)"><g><path d="M 11.464844 0.332031 C 16.265625 0.332031 20.136719 -1.9375 20.136719 -6.648438 C 20.136719 -11.640625 15.652344 -12.792969 11.691406 -13.839844 C 8.5 -14.660156 5.707031 -15.425781 5.707031 -18.167969 C 5.707031 -21.0625 8.289062 -22.195312 10.835938 -22.195312 C 13.679688 -22.195312 16.089844 -20.941406 16.839844 -18.183594 L 19.753906 -18.933594 C 18.828125 -23.050781 15.042969 -24.902344 10.714844 -24.902344 C 6.351562 -24.902344 2.566406 -22.652344 2.566406 -18.113281 C 2.566406 -13.578125 6.371094 -12.40625 10.207031 -11.378906 C 13.628906 -10.453125 16.890625 -9.648438 16.945312 -6.5625 C 16.996094 -3.472656 14.292969 -2.355469 11.515625 -2.355469 C 8.183594 -2.355469 5.652344 -3.996094 4.902344 -6.910156 L 1.832031 -6.175781 C 2.671875 -2.113281 6.351562 0.332031 11.464844 0.332031 Z M 11.464844 0.332031 "/></g></g><g transform="translate(252.852804, 206.055261)"><g><path d="M 14.378906 0.332031 C 21.238281 0.332031 26.578125 -4.433594 26.578125 -12.300781 C 26.578125 -20.136719 21.238281 -24.902344 14.378906 -24.902344 C 7.453125 -24.902344 2.144531 -20.136719 2.144531 -12.300781 C 2.144531 -4.433594 7.453125 0.332031 14.378906 0.332031 Z M 14.378906 -2.617188 C 9.285156 -2.617188 5.253906 -6.109375 5.253906 -12.300781 C 5.253906 -18.429688 9.285156 -21.917969 14.378906 -21.917969 C 19.441406 -21.917969 23.453125 -18.429688 23.453125 -12.300781 C 23.453125 -6.109375 19.441406 -2.617188 14.378906 -2.617188 Z M 14.378906 -2.617188 "/></g></g></g><g fill="#393839" fill-opacity="1"><g transform="translate(281.57662, 206.055261)"><g/></g></g><g clip-path="url(#07a22fd2ff)"><path fill="#2a7fbc" d="M 149.265625 193.074219 L 154.34375 193.074219 L 154.34375 188.164062 L 158.625 188.164062 L 158.625 193.074219 L 163.726562 193.074219 L 163.726562 197.195312 L 158.625 197.195312 L 158.625 202.078125 L 154.34375 202.078125 L 154.34375 197.195312 L 149.265625 197.195312 Z M 149.265625 193.074219 " fill-opacity="1" fill-rule="nonzero"/></g><path fill="#97ffff" d="M 151.648438 197.6875 L 152.011719 197.6875 L 151.570312 197.261719 L 151.570312 197.609375 Z M 151.648438 197.6875 " fill-opacity="1" fill-rule="nonzero"/><path fill="#97ffff" d="M 152.800781 197.6875 L 153.164062 197.6875 L 151.570312 196.152344 L 151.570312 196.5 Z M 152.800781 197.6875 " fill-opacity="1" fill-rule="nonzero"/><g clip-path="url(#e543d26e9d)"><path fill="#97ffff" d="M 156.644531 198.820312 L 156.644531 199.167969 L 160.179688 202.570312 L 160.542969 202.570312 Z M 156.644531 198.820312 " fill-opacity="1" fill-rule="nonzero"/></g><path fill="#97ffff" d="M 153.953125 197.6875 L 154.316406 197.6875 L 151.570312 195.042969 L 151.570312 195.394531 Z M 153.953125 197.6875 " fill-opacity="1" fill-rule="nonzero"/><g clip-path="url(#960ded8feb)"><path fill="#97ffff" d="M 156.644531 201.035156 L 156.644531 201.386719 L 157.878906 202.570312 L 158.238281 202.570312 Z M 156.644531 201.035156 " fill-opacity="1" fill-rule="nonzero"/></g><g clip-path="url(#87a55bdff9)"><path fill="#97ffff" d="M 156.644531 199.929688 L 156.644531 200.277344 L 159.027344 202.570312 L 159.390625 202.570312 Z M 156.644531 199.929688 " fill-opacity="1" fill-rule="nonzero"/></g><g clip-path="url(#43e185ecfd)"><path fill="#97ffff" d="M 156.644531 202.144531 L 156.644531 202.492188 L 156.726562 202.570312 L 157.089844 202.570312 Z M 156.644531 202.144531 " fill-opacity="1" fill-rule="nonzero"/></g><path fill="#97ffff" d="M 152.335938 193.566406 L 151.972656 193.566406 L 156.253906 197.6875 L 156.617188 197.6875 Z M 152.335938 193.566406 " fill-opacity="1" fill-rule="nonzero"/><g clip-path="url(#cee4c10d0e)"><path fill="#97ffff" d="M 166.027344 193.800781 L 166.027344 193.566406 L 165.785156 193.566406 Z M 166.027344 193.800781 " fill-opacity="1" fill-rule="nonzero"/></g><path fill="#97ffff" d="M 155.101562 197.6875 L 155.464844 197.6875 L 151.570312 193.9375 L 151.570312 194.285156 Z M 155.101562 197.6875 " fill-opacity="1" fill-rule="nonzero"/><path fill="#97ffff" d="M 156.644531 193.28125 L 156.644531 193.566406 L 156.578125 193.566406 L 160.925781 197.75 L 160.925781 197.6875 L 161.21875 197.6875 Z M 156.644531 193.28125 " fill-opacity="1" fill-rule="nonzero"/><g clip-path="url(#c3fc96d436)"><path fill="#97ffff" d="M 156.644531 197.714844 L 156.644531 198.0625 L 160.925781 202.179688 L 160.925781 201.832031 Z M 156.644531 197.714844 " fill-opacity="1" fill-rule="nonzero"/></g><path fill="#97ffff" d="M 160.925781 193.320312 L 160.925781 192.972656 L 156.644531 188.851562 L 156.644531 189.199219 Z M 160.925781 193.320312 " fill-opacity="1" fill-rule="nonzero"/><path fill="#97ffff" d="M 160.925781 192.210938 L 160.925781 191.863281 L 157.589844 188.65625 L 157.230469 188.65625 Z M 160.925781 192.210938 " fill-opacity="1" fill-rule="nonzero"/><path fill="#97ffff" d="M 161.542969 193.566406 L 161.183594 193.566406 L 165.460938 197.6875 L 165.824219 197.6875 Z M 161.542969 193.566406 " fill-opacity="1" fill-rule="nonzero"/><path fill="#97ffff" d="M 153.488281 193.566406 L 153.125 193.566406 L 160.925781 201.074219 L 160.925781 200.726562 Z M 153.488281 193.566406 " fill-opacity="1" fill-rule="nonzero"/><g clip-path="url(#9c8f3b7532)"><path fill="#97ffff" d="M 164.996094 193.566406 L 164.632812 193.566406 L 166.027344 194.90625 L 166.027344 194.558594 Z M 164.996094 193.566406 " fill-opacity="1" fill-rule="nonzero"/></g><g clip-path="url(#ff354e1bea)"><path fill="#97ffff" d="M 162.695312 193.566406 L 162.332031 193.566406 L 166.027344 197.121094 L 166.027344 196.773438 Z M 162.695312 193.566406 " fill-opacity="1" fill-rule="nonzero"/></g><g clip-path="url(#b9f3510a42)"><path fill="#97ffff" d="M 163.84375 193.566406 L 163.484375 193.566406 L 166.027344 196.015625 L 166.027344 195.667969 Z M 163.84375 193.566406 " fill-opacity="1" fill-rule="nonzero"/></g><path fill="#97ffff" d="M 160.925781 191.105469 L 160.925781 190.757812 L 158.742188 188.65625 L 158.382812 188.65625 Z M 160.925781 191.105469 " fill-opacity="1" fill-rule="nonzero"/><path fill="#97ffff" d="M 156.644531 192.175781 L 156.644531 192.523438 L 162.007812 197.6875 L 162.371094 197.6875 Z M 156.644531 192.175781 " fill-opacity="1" fill-rule="nonzero"/><path fill="#97ffff" d="M 155.789062 193.566406 L 155.425781 193.566406 L 160.925781 198.859375 L 160.925781 198.511719 Z M 155.789062 193.566406 " fill-opacity="1" fill-rule="nonzero"/><path fill="#97ffff" d="M 154.636719 193.566406 L 154.277344 193.566406 L 160.925781 199.964844 L 160.925781 199.617188 Z M 154.636719 193.566406 " fill-opacity="1" fill-rule="nonzero"/><path fill="#97ffff" d="M 156.644531 191.066406 L 156.644531 191.414062 L 163.160156 197.6875 L 163.523438 197.6875 Z M 156.644531 191.066406 " fill-opacity="1" fill-rule="nonzero"/><path fill="#97ffff" d="M 160.925781 189.996094 L 160.925781 189.648438 L 159.894531 188.65625 L 159.53125 188.65625 Z M 160.925781 189.996094 " fill-opacity="1" fill-rule="nonzero"/><path fill="#97ffff" d="M 160.925781 188.890625 L 160.925781 188.65625 L 160.683594 188.65625 Z M 160.925781 188.890625 " fill-opacity="1" fill-rule="nonzero"/><path fill="#97ffff" d="M 156.644531 189.960938 L 156.644531 190.308594 L 164.3125 197.6875 L 164.671875 197.6875 Z M 156.644531 189.960938 " fill-opacity="1" fill-rule="nonzero"/><g clip-path="url(#4aec394e4c)"><path fill="#000000" d="M 159.644531 201.339844 L 154.855469 201.339844 L 154.855469 196.457031 L 149.777344 196.457031 L 149.777344 191.84375 L 154.855469 191.84375 L 154.855469 186.933594 L 159.644531 186.933594 L 159.644531 191.84375 L 164.75 191.84375 L 164.75 196.457031 L 159.644531 196.457031 Z M 155.367188 200.847656 L 159.132812 200.847656 L 159.132812 195.964844 L 164.238281 195.964844 L 164.238281 192.335938 L 159.132812 192.335938 L 159.132812 187.425781 L 155.367188 187.425781 L 155.367188 192.335938 L 150.289062 192.335938 L 150.289062 195.964844 L 155.367188 195.964844 Z M 155.367188 200.847656 " fill-opacity="1" fill-rule="nonzero"/></g></svg>